<svg id="Layer_1" data-name="Layer 1" xmlns="http://www.w3.org/2000/svg" viewBox="0 0 2230 718.4"><defs><style>.cls-1{fill:#fff;}.cls-2{fill:#d43f27;}</style></defs><title>Findex_Logo_White_Dash_Thick</title><g id="Contents"><path class="cls-1" d="M2106.7,188.6a4.7,4.7,0,0,0,8.2.1L2222.4,11.6a7.78,7.78,0,0,0-.3-8.3,8.11,8.11,0,0,0-6.7-3.4h-82.2a3.74,3.74,0,0,0-3.7,3s1,16.3-5.6,29.7-49.9,96-49.9,96a5.4,5.4,0,0,0,.1,4.8Z"/><path class="cls-1" d="M2229.3,493.8,2112.4,296.9a4.21,4.21,0,0,0-7.2,0l-32.7,54c-2.9,4.8-3,8.3-.3,13.1l77.1,133.2a7.73,7.73,0,0,0,6.7,3.9h69.1A4.84,4.84,0,0,0,2229.3,493.8Z"/><path class="cls-1" d="M2080.3,255.7a15.08,15.08,0,0,0,.2-14.7C2058,200.1,1950,4,1950,4a7.78,7.78,0,0,0-6.8-4H1864a4.8,4.8,0,0,0-4.1,7.3l139.9,235.3a3,3,0,0,1,0,2.9l-147,243.8a7.73,7.73,0,0,0,.3,8.5,8.1,8.1,0,0,0,6.6,3.3h73.7a7.89,7.89,0,0,0,6.8-3.9Z"/><path class="cls-1" d="M271.3,72.7a67,67,0,0,0,67-66.9A5.7,5.7,0,0,0,332.6.1L11.5,0A4.09,4.09,0,0,0,7.3,5.1c3,15,8.9,43.7,8.9,70.9V455.6c0,12.5-6.9,42.6-6.9,42.6a2.39,2.39,0,0,0,2.3,2.9H89.1a7.17,7.17,0,0,0,7.2-7.2v-222H279a12.42,12.42,0,0,0,12.1-9.6L304,208.2a7.31,7.31,0,0,0-7.1-9H96.3V72.7Z"/><path class="cls-1" d="M488.2,0H410.3a4.09,4.09,0,0,0-4.2,5.2c3,14.9,8.7,43,8.9,70V493.8a7.17,7.17,0,0,0,7.2,7.2h65.7a7.17,7.17,0,0,0,7.2-7.2V6.9A6.85,6.85,0,0,0,488.2,0Z"/><path class="cls-1" d="M1422.3,193.5a344.74,344.74,0,0,0-4.6-52.3,203.66,203.66,0,0,0-15-49.5c-7.1-15.9-17.6-30.8-31.1-44.3a146.24,146.24,0,0,0-57.3-35.8C1292.2,3.9,1267.8,0,1241.5,0H1060.2a4.09,4.09,0,0,0-4.2,5.2c3,15,8.9,43.6,8.9,70.8h0V493.8a7.17,7.17,0,0,0,7.2,7.2h169.5c26.2,0,50.7-3.9,72.6-11.5a150.75,150.75,0,0,0,57.4-35.8,144.93,144.93,0,0,0,31.3-45.5,219.8,219.8,0,0,0,14.8-51.4,377,377,0,0,0,4.6-54.6c.2-18.7.3-37.2.3-55S1422.5,211.4,1422.3,193.5Zm-83.4,143.7c-2.3,25.2-9.9,44.9-22.4,58.7-19.9,21.6-47.7,32.5-82.7,32.5h-82.5a6.34,6.34,0,0,1-6.3-6.3V79.9a7.17,7.17,0,0,1,7.2-7.2h81.7c35,.2,62.9,11.3,82.7,32.8,12.5,13.8,20.1,32.4,22.4,55.2,2.4,23.3,3.6,52.4,3.6,86.6C1342.5,281.3,1341.3,311.5,1338.9,337.2Z"/><path class="cls-1" d="M1790.2,428.4H1573.3a1.31,1.31,0,0,1-1.3-1.2V273.3a1.54,1.54,0,0,1,1.5-1.5h165.9a12,12,0,0,0,11.7-9.3l13-54.5a7.25,7.25,0,0,0-7-8.9H1574.5a2.43,2.43,0,0,1-2.4-2.4V75.1a2.43,2.43,0,0,1,2.4-2.4H1736c32.8,0,63.1-28.3,63.1-63.1,0-5.4-2.5-9.5-10.2-9.5H1487.2a4.09,4.09,0,0,0-4.2,5.2c3,15,8.8,43.4,8.9,70.6v418a7.17,7.17,0,0,0,7.2,7.2h277.6a7.7,7.7,0,0,0,7.5-6l12.4-58.8A6.63,6.63,0,0,0,1790.2,428.4Z"/><path class="cls-1" d="M965.8,0H889.7a4.23,4.23,0,0,0-4.2,4.2s7.4,28.6,7.4,47.2V332.5L662.7,26.7,650.5,10c-5.1-6.5-12-9.3-20-10H589.8a4.09,4.09,0,0,0-4.2,5.2c3,15,8.9,43.6,8.9,70.7V493.8a7.17,7.17,0,0,0,7.2,7.2h65.7a7.17,7.17,0,0,0,7.2-7.2V181.9L890,474.2a71.28,71.28,0,0,0,7.6,9.6l7.4,9.4a20.58,20.58,0,0,0,16.1,7.8h44.8a7.17,7.17,0,0,0,7.2-7.2V7.2A7.26,7.26,0,0,0,965.8,0Z"/><path class="cls-2" d="M962.6,718.4H24.6a24.55,24.55,0,1,1,0-49.1H962.7a24.55,24.55,0,1,1-.1,49.1Z"/></g></svg>